Coordinates
version=1
nRows=13
nColumns=40
inDegrees=yes

Units are S.I. units (second, meters, Newtons, ...)
Angles are in degrees.

endheader
time	pelvis_tilt	pelvis_list	pelvis_rotation	pelvis_tx	pelvis_ty	pelvis_tz	hip_flexion_r	hip_adduction_r	hip_rotation_r	knee_angle_r	knee_angle_r_beta	ankle_angle_r	subtalar_angle_r	mtp_angle_r	hip_flexion_l	hip_adduction_l	hip_rotation_l	knee_angle_l	knee_angle_l_beta	ankle_angle_l	subtalar_angle_l	mtp_angle_l	lumbar_extension	lumbar_bending	lumbar_rotation	arm_flex_r	arm_add_r	arm_rot_r	elbow_flex_r	pro_sup_r	wrist_flex_r	wrist_dev_r	arm_flex_l	arm_add_l	arm_rot_l	elbow_flex_l	pro_sup_l	wrist_flex_l	wrist_dev_l
     15.83500000	     -2.04607925	     -5.54598248	     -5.13872870	      1.08800938	      0.93119076	      0.45642480	     14.81959129	      2.59459539	     -8.70246334	     18.57399282	     18.57399282	      7.51774353	     -1.05478175	     -2.40261290	      2.98794510	    -11.32869730	    -13.33575938	     30.11343786	     30.11343786	     15.59298068	    -13.30982980	     -4.44961893	     -9.50012379	      6.23365058	     -0.41764400	      2.85555118	    -16.35913114	     -7.68825196	     64.95399523	     45.17229639	      0.00000000	      0.00000000	     12.66144412	    -12.47918510	    -10.71464759	     38.86981432	     47.24334293	      0.00000000	      0.00000000
     15.84828571	     -2.08770896	     -5.55684265	     -4.68518583	      1.08798417	      0.93130769	      0.45928935	     14.41591269	      2.68558699	     -9.25234465	     18.49477452	     18.49477452	      7.86423592	     -0.80188256	     -2.54390434	      4.68416359	    -12.03287297	    -12.34067687	     33.53135488	     33.53135488	     14.41584221	    -14.32443256	     -5.15500906	     -9.44097595	      6.20489022	     -0.80272417	      3.74118280	    -16.55614121	     -7.92488371	     66.63192478	     45.13261673	      0.00000000	      0.00000000	     11.53950937	    -12.57728601	    -10.78677493	     37.45215073	     47.22009960	      0.00000000	      0.00000000
     15.86157143	     -1.98100142	     -5.64136664	     -4.18724380	      1.08777928	      0.93141339	      0.46198561	     13.86422194	      2.82686238	     -9.87090992	     18.45455007	     18.45455007	      8.25109814	     -0.54508439	     -2.71025548	      6.42536481	    -12.77813470	    -11.22914934	     37.21489822	     37.21489822	     13.08568209	    -15.39023892	     -5.68046653	     -9.58569841	      6.27988369	     -0.91270794	      4.64234387	    -16.99633182	     -8.05254350	     68.30299031	     45.08824238	      0.00000000	      0.00000000	     10.69682476	    -12.57062496	    -10.81515026	     36.26839971	     47.20096646	      0.00000000	      0.00000000
     15.87485714	     -2.06292328	     -5.63523284	     -3.68012794	      1.08717908	      0.93115192	      0.46448055	     13.57110249	      2.85641235	    -10.57547554	     18.45726301	     18.45726301	      8.58643725	     -0.21669290	     -2.91158169	      8.55421722	    -13.35769547	     -9.95890542	     41.00346757	     41.00346757	     11.52521295	    -16.43351656	     -6.01214503	     -9.56984472	      6.29494720	     -1.13428349	      5.30149250	    -17.43765190	     -8.01427199	     70.73339775	     45.01293334	      0.00000000	      0.00000000	      9.82800926	    -12.59597137	    -10.82550994	     34.75148624	     47.17779729	      0.00000000	      0.00000000
     15.88814286	     -2.02534364	     -5.60041855	     -3.17708519	      1.08634407	      0.93089576	      0.46672182	     13.22698153	      2.80850443	    -11.30593966	     18.58781625	     18.58781625	      9.01569973	      0.29147469	     -3.27041816	     10.65538430	    -13.79302143	     -8.63072594	     44.81329052	     44.81329052	     10.23535181	    -17.16364982	     -5.29688412	     -9.82857879	      6.30853739	     -0.57390398	      4.80564186	    -18.71100923	     -7.68557561	     75.57376714	     44.86031333	      0.00000000	      0.00000000	     10.02515112	    -12.33556962	    -10.71771847	     32.12967242	     47.13774442	      0.00000000	      0.00000000
     15.90142857	     -2.04630562	     -5.74875785	     -2.63807517	      1.08522145	      0.93058359	      0.46888597	     12.85086397	      3.04511167	    -11.81642773	     18.48244774	     18.48244774	      9.30980002	      0.32099222	     -3.37439696	     12.89222431	    -14.38916537	     -7.28103659	     48.48458538	     48.48458538	      8.72766199	    -17.68279997	     -5.03679919	    -10.00858312	      6.46564615	     -0.47133574	      5.89122579	    -19.27258243	     -8.12779731	     76.72401683	     44.84616871	      0.00000000	      0.00000000	      9.27406943	    -12.25013503	    -10.67089417	     31.43848644	     47.11460953	      0.00000000	      0.00000000
     15.91471429	     -2.18136975	     -5.67361978	     -2.08486168	      1.08385959	      0.93007681	      0.47062925	     12.76249959	      2.96036932	    -12.40611337	     18.64520975	     18.64520975	      9.65907626	      0.49811690	     -3.75915343	     15.38390557	    -14.48919905	     -5.75699999	     52.12980494	     52.12980494	      8.55877487	    -17.78812553	     -1.22783173	    -10.13113727	      6.45054267	     -0.29554569	      5.87669266	    -20.02275899	     -8.30415312	     80.94138651	     44.73948675	      0.00000000	      0.00000000	      8.80124730	    -12.09402498	    -10.33537622	     29.76063754	     47.03734532	      0.00000000	      0.00000000
     15.92800000	     -2.34744019	     -5.69892481	     -1.54014607	      1.08233977	      0.92970007	      0.47227574	     12.55610506	      3.05322517	    -12.85504695	     18.47241400	     18.47241400	      9.85930652	      0.49668577	     -3.99665274	     17.85653991	    -14.62926238	     -4.32820837	     55.37233793	     55.37233793	      8.62847608	    -17.59433960	      2.73632293	    -10.19048039	      6.48810801	      0.26647028	      6.18982672	    -20.73209619	     -9.18492115	     83.26451762	     44.73810026	      0.00000000	      0.00000000	      8.45042032	    -11.90868643	     -9.79455674	     28.74806376	     46.91959613	      0.00000000	      0.00000000
     15.94128571	     -2.46884060	     -5.75882270	     -1.00321885	      1.08077048	      0.92949434	      0.47380400	     12.28569603	      3.19730080	    -13.25328899	     18.26313807	     18.26313807	     10.09113115	      0.44030996	     -4.04736317	     20.01920709	    -14.80664212	     -3.19586682	     57.76074355	     57.76074355	      7.55611081	    -17.79134361	      3.11533741	    -10.30322932	      6.55177241	      0.40284507	      7.39983916	    -21.28299036	     -9.55327260	     84.31666660	     44.72646201	      0.00000000	      0.00000000	      7.59645372	    -11.78361371	     -9.73814514	     28.32556208	     46.89299726	      0.00000000	      0.00000000
     15.95457143	     -2.61787653	     -5.67799968	     -0.48907403	      1.07908370	      0.92943869	      0.47506723	     12.05463803	      3.17378895	    -13.62332008	     18.02920376	     18.02920376	     10.19978313	      0.38176640	     -4.37998409	     22.20502178	    -14.67113547	     -2.10896408	     59.84862314	     59.84862314	      8.12558957	    -17.52765631	      7.10203631	    -10.43872947	      6.48976873	      0.62285885	      8.02860810	    -21.90614102	     -9.80123099	     86.94355256	     44.71626001	      0.00000000	      0.00000000	      6.68330181	    -11.72045717	     -9.20467504	     28.15002754	     46.75980473	      0.00000000	      0.00000000
     15.96785714	     -2.72363426	     -5.60227175	     -0.02403637	      1.07740060	      0.92964901	      0.47622713	     11.71952589	      3.18193128	    -13.91175027	     17.68358872	     17.68358872	     10.32693032	      0.32880500	     -4.34440654	     24.01238044	    -14.60819849	     -1.41755396	     60.97755148	     60.97755148	      7.53884975	    -17.65497814	      7.21870886	    -10.55275716	      6.38545160	      0.94302077	      9.27023782	    -22.58286013	    -10.15110754	     87.75117590	     44.71069375	      0.00000000	      0.00000000	      5.92073094	    -11.53864420	     -9.18651785	     27.88625714	     46.74122166	      0.00000000	      0.00000000
     15.98114286	     -2.92111037	     -5.58188043	      0.51309931	      1.07564314	      0.92988453	      0.47722562	     11.38713957	      3.26255079	    -14.28460117	     17.14020307	     17.14020307	     10.41606240	      0.33889348	     -4.37737472	     25.83420149	    -14.53339242	     -0.77689469	     61.50006605	     61.50006605	      7.41578969	    -17.76629332	      7.90761801	    -10.63918512	      6.39547708	      0.88099254	     10.35026078	    -22.84340095	    -10.14560889	     89.67388176	     44.66432401	      0.00000000	      0.00000000	      4.84180232	    -11.44221120	     -9.21063459	     27.74121404	     46.72100443	      0.00000000	      0.00000000
     15.99442857	     -3.05527973	     -5.48069549	      0.97626278	      1.07390900	      0.93034981	      0.47806783	     10.95631203	      3.25519256	    -14.60487320	     16.54086794	     16.54086794	     10.40005749	      0.41006416	     -4.50786074	     27.37334345	    -14.38965686	     -0.44261979	     61.35204870	     61.35204870	      7.67229565	    -17.82162411	      8.90151467	    -10.80168022	      6.30654319	      1.12545440	     11.39542424	    -23.45458835	    -10.16570747	     91.39784566	     44.63313026	      0.00000000	      0.00000000	      3.84190822	    -11.26691090	     -9.32913304	     28.00691056	     46.71340540	      0.00000000	      0.00000000
